#!OML:ASF X:\für Bonn\!DataBase\2005_08_10_Bjorn_Final\c3d\bjorn.ASF
:FULLY-SPECIFIED
:DEGREES
351
root -1.16411 18.6799 3.10303 -541.99 34.0476 -538.656
lowerback -1.7404 5.67374 2.71021
upperback 6.24941 8.07259 -3.14801
thorax 8.39919 4.42293 -4.03152
lowerneck 1.50118 1.45689 10.9702
upperneck 13.9308 3.15536 -5.49764
head 4.16359 2.15914 -3.37796
rclavicle -7.89175e-014 -7.15625e-015
rhumerus 84.2286 16.85 -71.5505
rradius 39.4606
rwrist 28.6551
rhand -27.2322 10.1688
rfingers 7.12502
rthumb -0.644352 -19.81
lclavicle -7.89175e-014 -7.15625e-015
lhumerus 52.2026 -15.5222 82.0582
lradius 73.3523
lwrist 50.9262
lhand -48.1909 -1.32837
lfingers 7.12502
lthumb -20.8518 27.5711
rfemur 366.542 7.48318 -352.991
rtibia 38.7324
rfoot -6.47465 -2.02229
rtoes -41.1339
lfemur -17.1318 0.550469 -16.7597
ltibia 44.5486
lfoot -16.7116 5.06851
ltoes -22.4535
352
root -1.16481 18.631 3.11857 -542.183 34.0856 -538.661
lowerback -1.63777 5.67643 2.88175
upperback 6.36208 8.08941 -3.18718
thorax 8.49742 4.45407 -4.16812
lowerneck 1.64767 1.42572 10.953
upperneck 13.8535 3.11535 -5.37068
head 4.11139 2.14589 -3.33818
rclavicle 2.50469e-014 1.19271e-014
rhumerus 84.1636 16.7047 -71.3022
rradius 39.979
rwrist 28.1994
rhand -27.4033 10.1074
rfingers 7.12502
rthumb -0.809625 -19.8708
lclavicle 2.50469e-014 1.19271e-014
lhumerus 52.3209 -15.5759 81.7033
lradius 73.5614
lwrist 50.6559
lhand -48.3968 -1.10733
lfingers 7.12502
lthumb -21.0496 27.7702
rfemur 366.76 7.76473 -352.888
rtibia 38.8245
rfoot -7.09024 -2.03985
rtoes -41.4449
lfemur -17.2296 0.715362 -16.7132
ltibia 45.0439
lfoot -17.115 4.99264
ltoes -22.4612
353
root -1.16464 18.5815 3.13447 -542.376 34.1481 -538.685
lowerback -1.54086 5.69727 3.03812
upperback 6.46975 8.13268 -3.2345
thorax 8.59611 4.49799 -4.30174
lowerneck 1.80669 1.36915 10.9983
upperneck 13.7369 3.04401 -5.30296
head 4.04419 2.11579 -3.32846
rclavicle -5.24792e-014 -2.38542e-015
rhumerus 84.0336 16.5485 -71.1983
rradius 40.4924
rwrist 28.0385
rhand -27.7175 10.1094
rfingers 7.12502
rthumb -1.11309 -19.8675
lclavicle -5.24792e-014 -2.38542e-015
lhumerus 52.4876 -15.6722 81.314
lradius 73.7696
lwrist 50.3735
lhand -48.6756 -0.894833
lfingers 7.12502
lthumb -21.3175 27.9527
rfemur 366.955 8.10152 -352.794
rtibia 38.931
rfoot -7.73169 -2.08454
rtoes -41.7927
lfemur -17.342 0.846117 -16.6817
ltibia 45.5635
lfoot -17.5595 4.94399
ltoes -22.3985
354
root -1.16365 18.5309 3.15292 -542.567 34.2109 -538.688
lowerback -1.44178 5.71402 3.18542
upperback 6.58604 8.17129 -3.27038
thorax 8.69975 4.53934 -4.41868
lowerneck 1.97586 1.30631 11.1362
upperneck 13.5966 2.96722 -5.28107
head 3.96974 2.08433 -3.34841
rclavicle -6.63941e-014 -5.56597e-015
rhumerus 83.8671 16.3894 -71.1241
rradius 41.052
rwrist 27.9744
rhand -28.163 10.0562
rfingers 7.12502
rthumb -1.54335 -19.918
lclavicle -6.63941e-014 -5.56597e-015
lhumerus 52.5974 -15.7699 80.8652
lradius 74.0798
lwrist 49.959
lhand -48.943 -0.598796
lfingers 7.12502
lthumb -21.5743 28.2195
rfemur 367.153 8.44936 -352.664
rtibia 39.0592
rfoot -8.40342 -2.09535
rtoes -42.2452
lfemur -17.4578 0.971826 -16.6232
ltibia 46.0958
lfoot -17.9623 4.92216
ltoes -22.4603
355
root -1.16255 18.4804 3.17309 -542.749 34.272 -538.692
lowerback -1.34879 5.73251 3.3212
upperback 6.6931 8.21153 -3.30265
thorax 8.79513 4.58016 -4.52531
lowerneck 2.05306 1.24671 11.2011
upperneck 13.5952 2.88469 -5.14265
head 3.95016 2.05641 -3.31917
rclavicle 4.87022e-014 -2.54444e-014
rhumerus 83.6213 16.2385 -71.1383
rradius 41.6655
rwrist 28.0241
rhand -28.5957 10.046
rfingers 7.12502
rthumb -1.96124 -19.9247
lclavicle 4.87022e-014 -2.54444e-014
lhumerus 52.6054 -15.9107 80.3829
lradius 74.4398
lwrist 49.4868
lhand -49.156 -0.602793
lfingers 7.12502
lthumb -21.7788 28.1919
rfemur 367.324 8.78673 -352.54
rtibia 39.2068
rfoot -9.07385 -2.11338
rtoes -42.7592
lfemur -17.5885 0.88832 -16.5805
ltibia 46.643
lfoot -18.3689 5.02717
ltoes -22.218
356
root -1.16024 18.4334 3.19508 -542.916 34.3471 -538.715
lowerback -1.28806 5.75791 3.42173
upperback 6.78926 8.26073 -3.33332
thorax 8.89321 4.62209 -4.60715
lowerneck 2.11401 1.17408 11.2504
upperneck 13.6482 2.7864 -4.98251
head 3.94809 2.02372 -3.28092
rclavicle -1.62407e-013 2.8625e-014
rhumerus 83.3144 16.0906 -71.2367
rradius 42.3036
rwrist 28.1714
rhand -29.0492 10.0412
rfingers 7.12502
rthumb -2.39927 -19.925
lclavicle -1.62407e-013 2.8625e-014
lhumerus 52.4869 -16.0642 79.852
lradius 74.9219
lwrist 48.8508
lhand -49.4804 -0.562043
lfingers 7.12502
lthumb -22.0903 28.1961
rfemur 367.454 9.12844 -352.437
rtibia 39.3674
rfoot -9.75147 -2.09429
rtoes -43.1589
lfemur -17.7584 0.836831 -16.5558
ltibia 47.2042
lfoot -18.742 5.20433
ltoes -22.2934
357
root -1.15693 18.3882 3.21902 -543.072 34.4212 -538.738
lowerback -1.23768 5.78709 3.50351
upperback 6.87682 8.31506 -3.3647
thorax 8.98609 4.66483 -4.67829
lowerneck 2.16885 1.07633 11.2986
upperneck 13.729 2.65347 -4.79371
head 3.95256 1.97701 -3.23457
rclavicle -1.36366e-013 5.1684e-014
rhumerus 82.9317 15.9345 -71.3854
rradius 43.0006
rwrist 28.2979
rhand -29.4729 10.0727
rfingers 7.12502
rthumb -2.80838 -19.8885
lclavicle -1.36366e-013 5.1684e-014
lhumerus 52.3593 -16.2582 79.2525
lradius 75.3888
lwrist 48.0506
lhand -49.8597 -0.567471
lfingers 7.12502
lthumb -22.4544 28.1472
rfemur 367.567 9.45973 -352.333
rtibia 39.5285
rfoot -10.3815 -2.05806
rtoes -43.5298
lfemur -17.9554 0.841588 -16.5136
ltibia 47.776
lfoot -19.0902 5.27938
ltoes -22.2279
358
root -1.15309 18.3426 3.24435 -543.241 34.5112 -538.78
lowerback -1.20716 5.81873 3.54146
upperback 6.97448 8.37371 -3.37803
thorax 9.09256 4.70604 -4.70303
lowerneck 2.19815 0.957379 11.347
upperneck 13.8634 2.49957 -4.66656
head 3.97611 1.91966 -3.20804
rclavicle 7.2954e-014 0
rhumerus 82.5196 15.7922 -71.5407
rradius 43.7186
rwrist 28.4082
rhand -29.893 10.2376
rfingers 7.12502
rthumb -3.21408 -19.7179
lclavicle 7.2954e-014 0
lhumerus 52.1774 -16.455 78.6021
lradius 75.9147
lwrist 47.1324
lhand -50.2835 -0.524225
lfingers 7.12502
lthumb -22.8612 28.1408
rfemur 367.68 9.79444 -352.251
rtibia 39.668
rfoot -10.9599 -1.99943
rtoes -43.7376
lfemur -18.1544 0.954133 -16.4718
ltibia 48.3311
lfoot -19.3693 5.28216
ltoes -22.3094
359
root -1.14771 18.301 3.2698 -543.384 34.5591 -538.825
lowerback -1.21711 5.83733 3.56694
upperback 7.06707 8.41454 -3.39947
thorax 9.21462 4.73759 -4.72749
lowerneck 2.2181 0.824407 11.4186
upperneck 14.0494 2.33094 -4.54021
head 4.01612 1.85956 -3.18597
rclavicle -6.34123e-014 -2.38542e-014
rhumerus 82.0561 15.6384 -71.7458
rradius 44.4612
rwrist 28.4723
rhand -30.2994 10.5736
rfingers 7.12502
rthumb -3.60658 -19.3757
lclavicle -6.34123e-014 -2.38542e-014
lhumerus 51.9514 -16.6794 77.8587
lradius 76.4501
lwrist 46.0365
lhand -50.7275 -0.495332
lfingers 7.12502
lthumb -23.2872 28.1164
rfemur 367.785 10.0496 -352.186
rtibia 39.772
rfoot -11.4665 -1.94033
rtoes -43.9957
lfemur -18.3569 1.04885 -16.4331
ltibia 48.832
lfoot -19.5762 5.28265
ltoes -22.4562
360
root -1.14144 18.2685 3.29532 -543.538 34.5926 -538.873
lowerback -1.24133 5.8433 3.54156
upperback 7.18254 8.43971 -3.38925
thorax 9.35479 4.75702 -4.68951
lowerneck 2.13449 0.699474 11.4016
upperneck 14.3883 2.16666 -4.36296
head 4.1188 1.80592 -3.13288
rclavicle 1.0138e-014 -1.90833e-014
rhumerus 81.5866 15.4947 -71.845
rradius 45.2943
rwrist 28.3874
rhand -30.6738 10.9808
rfingers 7.12502
rthumb -3.96812 -18.962
lclavicle 1.0138e-014 -1.90833e-014
lhumerus 51.7132 -16.8981 77.0428
lradius 76.9735
lwrist 44.9043
lhand -51.1682 -0.728448
lfingers 7.12502
lthumb -23.7099 27.8291
rfemur 367.923 10.2904 -352.117
rtibia 39.835
rfoot -11.9099 -1.84936
rtoes -44.085
lfemur -18.5036 1.07036 -16.3973
ltibia 49.242
lfoot -19.7303 5.29875
ltoes -22.5477
361
root -1.13378 18.2462 3.32003 -543.656 34.6255 -538.901
lowerback -1.27267 5.86292 3.53232
upperback 7.26438 8.47959 -3.3931
thorax 9.46902 4.78319 -4.67468
lowerneck 2.01734 0.550119 11.4329
upperneck 14.8413 1.97206 -4.14984
head 4.26056 1.74961 -3.07756
rclavicle 8.72665e-014 -3.65764e-014
rhumerus 80.8617 15.3662 -72.0115
rradius 46.2903
rwrist 28.2795
rhand -31.0519 11.4615
rfingers 7.12502
rthumb -4.3333 -18.4742
lclavicle 8.72665e-014 -3.65764e-014
lhumerus 51.3953 -17.1982 76.1143
lradius 77.51
lwrist 43.6588
lhand -51.6363 -1.2217
lfingers 7.12502
lthumb -24.1588 27.2769
rfemur 368.038 10.4845 -352.056
rtibia 39.8682
rfoot -12.27 -1.6975
rtoes -43.9853
lfemur -18.6051 1.01818 -16.3471
ltibia 49.5409
lfoot -19.8534 5.35557
ltoes -22.4588
362
root -1.1261 18.2309 3.34477 -543.749 34.6627 -538.851
lowerback -1.28994 5.87346 3.54472
upperback 7.34113 8.49577 -3.33079
thorax 9.55788 4.79355 -4.60637
lowerneck 1.90799 0.400339 11.3118
upperneck 15.3788 1.78148 -3.86864
head 4.42587 1.69772 -2.9763
rclavicle 9.70069e-014 -6.52014e-014
rhumerus 80.0984 15.3013 -72.078
rradius 47.323
rwrist 28.0126
rhand -31.3955 11.9726
rfingers 7.12502
rthumb -4.66506 -17.956
lclavicle 9.70069e-014 -6.52014e-014
lhumerus 50.8647 -17.507 75.1582
lradius 78.2333
lwrist 42.4092
lhand -52.2519 -2.09873
lfingers 7.12502
lthumb -24.749 26.3202
rfemur 368.176 10.6872 -351.91
rtibia 39.8806
rfoot -12.5947 -1.56221
rtoes -43.8746
lfemur -18.6337 0.992006 -16.2103
ltibia 49.7326
lfoot -19.945 5.26676
ltoes -22.1373
363
root -1.11786 18.2211 3.37162 -543.81 34.6891 -538.761
lowerback -1.33711 5.87857 3.54351
upperback 7.43001 8.50096 -3.23249
thorax 9.6679 4.79527 -4.48969
lowerneck 1.8846 0.240289 11.2231
upperneck 15.8677 1.59523 -3.66218
head 4.56381 1.64673 -2.90418
rclavicle -7.77248e-014 5.40694e-014
rhumerus 79.2675 15.2407 -72.0627
rradius 48.4773
rwrist 27.5838
rhand -31.6689 12.6307
rfingers 7.12502
rthumb -4.92903 -17.292
lclavicle -7.77248e-014 5.40694e-014
lhumerus 50.2083 -17.8394 74.1421
lradius 79.0564
lwrist 41.0493
lhand -53.0165 -3.28985
lfingers 7.12502
lthumb -25.4816 25.0265
rfemur 368.295 10.8363 -351.746
rtibia 39.8942
rfoot -12.8599 -1.34921
rtoes -43.4819
lfemur -18.633 0.975502 -16.0316
ltibia 49.8265
lfoot -19.9716 5.19079
ltoes -21.8394
